<?xml version="1.0" standalone="no"?>
<!DOCTYPE svg PUBLIC "-//W3C//DTD SVG 20010904//EN"
 "http://www.w3.org/TR/2001/REC-SVG-20010904/DTD/svg10.dtd">
<svg version="1.0" xmlns="http://www.w3.org/2000/svg"
 width="406.000000pt" height="406.000000pt" viewBox="0 0 406.000000 406.000000"
 preserveAspectRatio="xMidYMid meet">
<metadata>
Created by potrace 1.11, written by Peter Selinger 2001-2013
</metadata>
<g transform="translate(0.000000,406.000000) scale(0.100000,-0.100000)"
fill="#000000" stroke="none">
<path d="M0 2030 l0 -2030 2030 0 2030 0 0 2030 0 2030 -2030 0 -2030 0 0
-2030z m1775 1370 l168 -360 62 0 62 0 158 338 c87 185 164 348 171 362 12 21
14 -33 12 -378 -1 -221 1 -403 3 -405 34 -22 103 -46 113 -39 6 5 145 117 308
250 163 133 299 242 302 242 2 0 -74 -160 -170 -355 -110 -223 -173 -362 -169
-373 3 -9 19 -32 35 -51 l29 -35 387 93 c212 51 387 91 389 89 2 -2 -133 -111
-300 -242 -168 -131 -305 -242 -305 -246 0 -5 5 -32 12 -60 8 -37 18 -54 32
-59 12 -5 186 -43 388 -87 202 -43 364 -82 360 -85 -4 -4 -169 -42 -367 -84
-198 -43 -370 -81 -381 -86 -20 -7 -44 -69 -44 -112 0 -8 140 -123 310 -257
171 -133 310 -244 308 -246 -2 -1 -171 38 -377 87 -205 49 -379 89 -387 89 -7
0 -30 -21 -50 -46 l-38 -46 178 -355 c97 -195 176 -357 174 -359 -2 -2 -142
109 -310 246 -169 138 -310 250 -314 250 -4 0 -29 -10 -56 -22 l-48 -22 0
-405 0 -406 -166 355 c-92 195 -171 361 -177 368 -7 8 -29 12 -66 10 l-55 -3
-152 -325 c-84 -179 -162 -343 -174 -365 l-20 -40 2 405 3 405 -45 22 c-25 12
-50 22 -57 22 -6 1 -149 -111 -317 -249 -169 -137 -308 -250 -311 -250 -2 0
75 159 171 352 95 194 174 359 174 367 0 21 -60 91 -79 91 -9 0 -185 -41 -391
-90 -205 -50 -375 -89 -376 -87 -3 3 581 463 619 488 5 4 4 29 -4 64 -9 42
-18 59 -33 64 -12 4 -186 43 -388 87 -203 43 -368 81 -368 84 0 3 165 41 368
85 202 43 377 82 389 86 19 7 21 16 22 66 l0 58 -309 240 c-170 132 -305 241
-301 243 4 1 178 -39 387 -89 l379 -90 37 43 c21 24 38 49 38 56 0 6 -79 170
-176 363 -96 193 -174 352 -172 354 2 1 142 -112 313 -251 171 -140 312 -254
315 -254 3 0 28 13 55 28 l50 27 -4 398 c-2 218 -2 397 1 397 3 0 81 -162 173
-360z"/>
<path d="M1626 3261 c-8 -12 18 -94 43 -137 18 -31 20 -40 10 -79 -10 -41 -6
-80 17 -162 5 -18 -2 -26 -48 -49 -128 -65 -276 -190 -370 -314 -67 -88 -143
-246 -170 -355 -29 -119 -32 -346 -4 -445 66 -241 246 -392 549 -462 77 -18
124 -22 287 -22 l195 -1 121 42 c206 70 359 157 477 271 81 79 128 148 164
239 23 59 27 83 27 183 0 136 -15 202 -79 338 -137 290 -342 474 -622 558 -78
24 -106 27 -248 28 -88 1 -176 -1 -195 -4 -33 -5 -35 -3 -48 35 -7 22 -12 57
-10 79 l3 40 48 -3 c79 -5 130 43 107 100 -20 48 -90 51 -137 7 l-23 -21 -24
54 c-13 30 -26 62 -29 72 -7 18 -32 23 -41 8z m206 -133 c9 -25 -4 -38 -38
-38 -39 0 -44 12 -12 34 27 19 44 20 50 4z m300 -304 c210 -48 387 -175 514
-369 106 -162 154 -302 154 -446 0 -272 -190 -478 -575 -620 -90 -33 -90 -33
-275 -33 -200 0 -258 9 -389 61 -183 73 -300 198 -347 373 -25 92 -25 289 -1
393 35 149 107 288 208 401 108 122 301 241 416 257 76 10 208 3 295 -17z"/>
<path d="M2058 2669 c-20 -11 -24 -44 -8 -54 6 -4 39 -7 74 -8 72 -2 103 -21
108 -66 2 -17 10 -27 24 -29 52 -7 55 66 4 116 -45 45 -157 68 -202 41z"/>
<path d="M1616 2587 c-54 -31 -78 -78 -73 -145 4 -62 27 -93 55 -76 14 9 16
23 14 70 -4 72 15 95 86 104 34 4 48 10 50 23 10 49 -65 63 -132 24z"/>
<path d="M1815 2561 c-99 -46 -131 -141 -81 -246 27 -58 57 -88 83 -83 24 4
30 48 9 63 -22 17 -46 78 -46 117 0 49 24 76 84 93 56 17 121 9 157 -18 39
-29 51 -97 23 -128 -12 -14 -13 -22 -4 -38 15 -29 34 -26 64 10 62 74 5 209
-101 238 -58 17 -143 13 -188 -8z"/>
<path d="M2486 2310 c-29 -9 -66 -37 -66 -51 0 -4 17 -9 38 -11 l37 -3 -105
-105 c-58 -58 -131 -120 -162 -138 -178 -105 -379 -119 -561 -38 -64 28 -197
112 -197 124 0 4 15 13 33 20 29 12 30 14 14 23 -61 35 -177 -20 -177 -83 0
-28 52 -23 80 7 13 14 27 25 31 25 4 0 32 -44 62 -97 117 -206 258 -363 383
-424 58 -29 79 -34 139 -34 62 0 81 5 147 37 85 43 174 128 226 220 65 113
122 348 106 435 -7 36 -4 37 45 23 28 -8 38 -6 52 6 22 20 15 39 -19 53 -44
17 -75 20 -106 11z m-246 -526 c17 -44 12 -109 -11 -138 -27 -34 -75 -59 -100
-51 -39 13 -64 114 -43 170 9 23 60 44 107 45 31 0 39 -4 47 -26z m-228 -25
c43 -23 62 -124 32 -167 -19 -28 -67 -29 -112 -2 -36 22 -47 44 -57 112 -6 39
-4 48 12 57 24 14 99 14 125 0z"/>
</g>
</svg>
